<svg xmlns="http://www.w3.org/2000/svg" viewBox="0 0 188 204"><g fill="none" fill-rule="evenodd"><path fill="#FFF" fill-rule="nonzero" d="M94.7 13l10 16.4L95 45.3l-3.7.2H88A57.8 57.8 0 0 0 53.7 62l-8.2-15.6-1.2-2.2h-2.5l-15.9.3.7-1a88.9 88.9 0 0 1 57.2-29.9l8-.4 2.9-.2zm-3-13v9l-8.2.4A93.1 93.1 0 0 0 23.4 41l-6 7.7 24.5-.4 11 20.9.4-.7a52.6 52.6 0 0 1 35.2-18.8l2.9-.1v9.1l18.3-29.2L91.7 0z"/><path d="M94.7 13l10 16.4L95 45.3l-3.7.2H88A57.8 57.8 0 0 0 53.7 62l-8.2-15.6-1.2-2.2h-2.5l-15.9.3.7-1a88.9 88.9 0 0 1 57.2-29.9l8-.4 2.9-.2z"/><path fill="#FFF" fill-rule="nonzero" d="M110.2 14.5l1 .2A88.8 88.8 0 0 1 166 49.4l4.3 6.7 1.6 2.4-9.3 17-18.7-.7-2-3.2-1.6-2.4a56.3 56.3 0 0 0-31.4-21.9l9.4-14.8 1.4-2-1.3-2.2-8.2-13.7zm-7.9-5.1l12.5 20.9L102.2 50h.7a52.6 52.6 0 0 1 33.9 21.3l1.5 2.4-8 4.5 34.5 1.3 16.7-30.2-7.8 4.4-4.4-6.8A93 93 0 0 0 112 10.6l-9.6-1.3h-.2z"/><path d="M110.2 14.5l1 .2A88.8 88.8 0 0 1 166 49.4l4.3 6.7 1.6 2.4-9.3 17-18.7-.7-2-3.2-1.6-2.4a56.3 56.3 0 0 0-31.4-21.9l9.4-14.8 1.4-2-1.3-2.2-8.2-13.7z"/><path fill="#FFF" fill-rule="nonzero" d="M178.2 72.8l.4 1a89 89 0 0 1-3.2 64.6l-3.7 7-1.4 2.7-19.3.2-8.7-16.6 1.8-3.2 1.3-2.5a56 56 0 0 0 3.5-38.3l17.7 1h2.5l1.2-2.1 7.9-13.9v.1zm.6-9.4l-12 21.1-23.6-1 .3.7c4.7 13 4.1 27.3-1.7 39.8l-1.3 2.5-7.9-4.7 16 30.6 34.4-.4-7.7-4.6 3.7-7.2a92.8 92.8 0 0 0 3.4-67.7l-3.6-9v-.1z"/><path d="M178.2 72.8l.4 1a89 89 0 0 1-3.2 64.6l-3.7 7-1.4 2.7-19.3.2-8.7-16.6 1.8-3.2 1.3-2.5a56 56 0 0 0 3.5-38.3l17.7 1h2.5l1.2-2.1 7.9-13.9v.1z"/><path fill="#FFF" fill-rule="nonzero" d="M36.8 56.1l8.7 16.5-1.7 3.3-1.4 2.6a56 56 0 0 0-3.1 38l-17.7-.9-2.5-.1-1.2 2.2-8 14-.4-1a88.5 88.5 0 0 1 2.9-64.5l3.7-7.1 1.3-2.6 19.4-.4zm2.4-4l-34.5.6 7.7 4.4-3.7 7.3a92.8 92.8 0 0 0-3 67.7l3.7 9 12-21.2 23.6 1-.4-.6a52.4 52.4 0 0 1 1.5-40l1.3-2.5 7.8 4.7-16-30.5z"/><path d="M36.8 56.1l8.7 16.5-1.7 3.3-1.4 2.6a56 56 0 0 0-3.1 38l-17.7-.9-2.5-.1-1.2 2.2-8 14-.4-1a88.5 88.5 0 0 1 2.9-64.5l3.7-7.1 1.3-2.6 19.4-.4z"/><path fill="#FFF" fill-rule="nonzero" d="M25.3 128l18.7.9 2 3.1 1.6 2.5a56.3 56.3 0 0 0 31.1 22.1l-9.6 14.8-1.4 2 1.3 2.2 8 13.7-1.1-.2A88.8 88.8 0 0 1 21.6 154l-4.3-6.8-1.5-2.4 9.5-16.8zm-2.3-4.2l-17 30 7.9-4.4 4.3 6.9a93 93 0 0 0 57 37l9.6 1.3-12.3-21 12.9-19.7h-.8A52.6 52.6 0 0 1 51 132.3l-1.5-2.5 8-4.4-34.4-1.6z"/><path d="M25.3 128l18.7.9 2 3.1 1.6 2.5a56.3 56.3 0 0 0 31.1 22.1l-9.6 14.8-1.4 2 1.3 2.2 8 13.7-1.1-.2A88.8 88.8 0 0 1 21.6 154l-4.3-6.8-1.5-2.4 9.5-16.8z"/><path fill="#FFF" fill-rule="nonzero" d="M133.7 142.5l8 15.7 1.2 2.2h18.4l-.7.8a88.9 88.9 0 0 1-57.6 29.4l-8 .3-3 .2-9.8-16.7 10.1-15.7 3.7-.1 2.9-.1h.2c13-1.2 25.3-6.8 34.6-16zm1-7.1l-.5.6a52.6 52.6 0 0 1-35.5 18.3l-2.8.1.1-9-18.6 29L95 204l.2-9 8.1-.3a93.1 93.1 0 0 0 60.4-30.9l6-7.6-24.3.1-10.7-21z"/><path d="M133.7 142.5l8 15.7 1.2 2.2h18.4l-.7.8a88.9 88.9 0 0 1-57.6 29.4l-8 .3-3 .2-9.8-16.7 10.1-15.7 3.7-.1 2.9-.1h.2c13-1.2 25.3-6.8 34.6-16z"/></g></svg>