<svg xmlns="http://www.w3.org/2000/svg" xmlns:xlink="http://www.w3.org/1999/xlink" viewBox="0 0 184 184"><defs><path id="a" d="M0 116.5h28.6v28.6H0z"/><path id="b" d="M38.8 77.7h28.6v28.6H38.8z"/><path id="c" d="M38.8 38.8h28.6v28.6H38.8z"/><path id="d" d="M38.8 116.5h28.6v28.6H38.8z"/><path id="e" d="M77.7 77.7h28.6v28.6H77.7z"/><path id="f" d="M77.7 116.5h28.6v28.6H77.7z"/><path id="g" d="M77.7 155.4h28.6V184H77.7z"/><path id="h" d="M116.5 155.4h28.6V184h-28.6z"/></defs><g fill="none" fill-rule="evenodd"><path stroke="#FFF" stroke-width="4" d="M2 79.7h24.6v24.6H2zm0-38.9h24.6v24.6H2zM2 2h24.6v24.6H2z"/><use fill="#FFF" xlink:href="#a"/><path stroke="#FFF" stroke-width="4" d="M2 118.5h24.6v24.6H2zm0 38.9h24.6V182H2z"/><use fill="#FFF" xlink:href="#b"/><path stroke="#FFF" stroke-width="4" d="M40.8 79.7h24.6v24.6H40.8z"/><use fill="#FFF" xlink:href="#c"/><path stroke="#FFF" stroke-width="4" d="M40.8 40.8h24.6v24.6H40.8z"/><use fill="#FFF" xlink:href="#d"/><path stroke="#FFF" stroke-width="4" d="M40.8 118.5h24.6v24.6H40.8zm0 38.9h24.6V182H40.8z"/><use fill="#FFF" xlink:href="#e"/><path stroke="#FFF" stroke-width="4" d="M79.7 79.7h24.6v24.6H79.7z"/><use fill="#FFF" xlink:href="#f"/><path stroke="#FFF" stroke-width="4" d="M79.7 118.5h24.6v24.6H79.7z"/><use fill="#FFF" xlink:href="#g"/><path stroke="#FFF" stroke-width="4" d="M79.7 157.4h24.6V182H79.7zm38.8-38.9h24.6v24.6h-24.6z"/><use fill="#FFF" xlink:href="#h"/><path stroke="#FFF" stroke-width="4" d="M118.5 157.4h24.6V182h-24.6zm38.9 0H182V182h-24.6z"/></g></svg>