<svg xmlns="http://www.w3.org/2000/svg" viewBox="0 0 199 54"><path fill="#FFF" d="M197.6 46.5l-2.7 2.7-2.6-2.7-.9.8 2.7 2.7-2.7 2.6.9.9 2.6-2.7 2.7 2.7.8-.9-2.6-2.6 2.6-2.7zM85.2 49.4h100.6v1.2H85.2zm-9.3-1.8c1.3 0 2.3 1 2.3 2.4 0 1.3-1 2.3-2.3 2.3-1.4 0-2.4-1-2.4-2.3 0-1.4 1-2.4 2.4-2.4zm0-1.2c-2 0-3.6 1.6-3.6 3.6s1.6 3.5 3.6 3.5 3.5-1.6 3.5-3.5c0-2-1.6-3.6-3.5-3.6zM4 12H.2v-1.1H4V8.2c0-3 .7-5 2-6.1C7 1 8.6.5 10.5.5c.6 0 1.7 0 2 .2v1a15 15 0 0 0-2.2-.2C6.7 1.5 5 3.7 5 8.1V11h6.8v1H5v25H4V12zm14.1-8.2c0-.5.4-1 1-1 .5 0 1 .5 1 1 0 .6-.5 1-1 1-.6 0-1-.4-1-1zm.5 7h1.1V37h-1V11zM27.7 37h1.1V20.5c0-5.8 3.5-9.2 9.5-9.2s9.5 3.3 9.5 9.2V37h1V20.5c0-6.5-4-10.1-10.5-10.1-6.6 0-10.6 3.7-10.6 10V37zm27.1-13.1c0-7.8 5.5-13.5 12.4-13.5 6.8 0 12.2 5.9 12.2 13.1l-.1.7H55.8c0 7 5 12.3 11.4 12.3 3.8 0 7-1.6 9.1-4.1l.8.6a13 13 0 0 1-10 4.6c-7-.1-12.3-5.8-12.3-13.7zm23.4-.8c-.1-6.7-5-11.7-11-11.7-6.1 0-11.2 5-11.3 11.7h22.3zm10-8.6h-3v-3.6h3V.9H92v10h6v3.6h-6v15.2c0 3.3 1.1 4.5 3.7 4.5l2.4-.1v3.5c-.8.2-1.5.2-2.3.2-3.2 0-7.5-.8-7.5-8V14.5h-.1zm16.6-3.6h3.8v15.5c0 5 2.8 7.5 7 7.5 4.4 0 7.2-2.5 7.2-7.5V10.9h3.8v15.5c0 7.4-4.7 11-11.1 11-6.1 0-10.7-3.6-10.7-10.6v-16zM133.4 37h3.8V21.3c0-5 2.8-7.5 7.1-7.5 4.4 0 7.2 2.5 7.2 7.5V37h3.8V21.4c0-7.3-4.8-11-11.1-11-6.2 0-10.8 3.6-10.8 10.6v16zm27.1-13c0-8.4 5.5-14 13-14 7.3 0 12 5.9 12 13v1.7h-21.2c.2 5.7 3.8 9.4 9.3 9.4 3.7 0 5.8-1.4 8-3.7l2.6 2.5a13 13 0 0 1-10.6 4.6c-7.8 0-13.1-5.3-13.1-13.4V24zm21-2.6c0-4.2-3.6-7.7-8-7.7-4.7 0-8.6 3.5-9 7.7h17zM188.2 9c0-.4 0-.8.3-1.2.2-.4.6-.7.9-1l1.2-.3c.5 0 1 0 1.3.3.4.3.7.6.9 1 .2.4.3.9.3 1.3 0 .3 0 .8-.3 1.2-.2.4-.6.7-.9 1-.4.2-.8.3-1.3.3-.4 0-.8 0-1.2-.3a2 2 0 0 1-1-1l-.2-1.2zm4.5 0c0-.3 0-.7-.2-1-.2-.4-.4-.7-.7-.9l-1-.3c-.5 0-.8.1-1.1.3-.3.2-.6.5-.7.8l-.3 1.2c0 .3.1.7.3 1 .1.4.4.7.7.9.3.1.6.3 1 .3s.7-.1 1-.3c.4-.2.6-.5.8-.8l.2-1.1zm-2.5.4v1.2h-.6v-3h1c.3 0 .6.1.8.3.2.1.3.4.3.6 0 .2-.2.5-.4.6l.3.3v.9c0 .1 0 .2.2.2h-.6v-.7c0-.1 0-.3-.2-.4h-.8zm0-.5h.8l.2-.4c0-.2 0-.3-.2-.3l-.4-.1h-.5v.8z"/></svg>