<svg xmlns="http://www.w3.org/2000/svg" viewBox="0 0 930 160"><path fill="#FFF" d="M229.4 82.5h-16.2c0-12.8-9-20.7-21.5-20.7-19 0-24.8 17.2-24.8 34 0 16.4 7.9 29.6 25.9 29.6a19 19 0 0 0 19.4-18.6h17.2C229 130.4 208.9 138 192 138c-29.8 0-44.1-19-44.1-43.6 0-25.7 13.2-44.6 40.5-44.6 10.1 0 18.7 2.8 24.5 11.4l.3.3v-10h16.2v31.1zm69.1 23c0 20.2-13.2 32.4-32.5 32.4-18.9 0-32.5-11.9-32.5-32.4 0-20.2 13.2-32.4 32.5-32.4s32.5 11.9 32.5 32.4m-32.5 20c11 0 14.5-10.5 14.5-20 0-9.8-3.5-20-14.5-20s-14.5 10.6-14.5 20c0 9.8 3.5 20 14.5 20m33.9-.8h8.3V61.1h-8.3V49.7h25.8v75h8.7v11.9h-34.5zm40 0h8.7V61.1h-8.7V49.7h26v75h8.6v11.9h-34.6zm54.3-14.1c0 9.7 5.8 15.4 15.1 15.4 6.1 0 10.4-2.5 11.9-9h16.1c-2.8 14.8-14.7 21-28.7 21-21.2 0-32.7-12.7-32.7-33.2 0-19 13-31.7 32.3-31.7 14.8 0 26.6 8.6 29.1 23.4.8 4.7.8 9.4.8 13.7h-43.9v.4zm27.3-11.3c0-8.3-4.5-13.8-13.7-13.8-8.8 0-14 5.9-14 13.8h27.7zm95.3-11.9h-8.6v43.3c0 15.3-7.8 29.3-32.1 29.3-18 0-27.2-5.7-28.3-20h19c.3 7.5 5.7 8.5 11 8.5 7.6 0 13.3-7.5 13.3-15v-6.8c-5.7 6.1-9.7 9-20.4 9-16.4 0-25.7-14-25.7-29.4 0-17.9 8.2-31.8 27.5-31.8 9.6 0 15.7 4.6 19.7 10.7h.3V76h24v11.5h.3zm-39.2 35.4c10.5 0 14.3-8.5 14.3-18 0-9.1-3.8-17.9-14.3-17.9S463 96 463 105.5c.4 8.8 5.3 17.3 14.7 17.3zm60.4-12.2c0 9.7 5.7 15.4 15 15.4 6.1 0 10.4-2.5 11.9-9H581c-2.8 14.8-14.7 21-28.7 21-21.2 0-32.7-12.7-32.7-33.2 0-19 13-31.7 32.3-31.7 14.8 0 26.6 8.6 29.1 23.4.8 4.7.8 9.4.8 13.7h-43.9v.4zm27.2-11.3c0-8.3-4.4-13.8-13.6-13.8-8.9 0-14 5.9-14 13.8h27.6zm19.3 24.7h10.8V63.2h-10.8V51h40.9c15.4 0 33.7.4 33.7 21 0 11.1-5.8 18-17.2 19.4v.4c10.7.4 20 8.7 20 19.9 0 25.6-23.6 24.8-36.9 24.8h-39.8V124h-.7zm29-37.1h10.3c8.5 0 17.4-1.8 17.4-12.5 0-10.6-9.2-11-17-11h-10.6V87zm0 37.2h11.9c11 0 18.6-1.8 18.6-13.6 0-12.6-9.3-12.6-18.3-12.6h-12.1v26.2zm116.1-18.6c0 20.2-13.2 32.4-32.6 32.4-19 0-32.3-11.9-32.3-32.4 0-20.2 13.3-32.4 32.3-32.4 19.4 0 32.6 11.9 32.6 32.4m-32.6 20c11 0 14.7-10.5 14.7-20 0-9.8-3.6-20-14.7-20s-14.3 10.6-14.3 20c-.4 9.8 3.2 20 14.3 20m79.6 1.7c-5.8 8.2-11.1 10.7-20.4 10.7-11 0-21-6.4-21-19.2 0-20 20-20.3 35-20.3h6v-4.7c0-7.1-5.4-9.2-11.8-9.2-6.8 0-10.7 2.8-11.4 10h-15.7c1-17.2 15.3-20 29.3-20 19.6 0 25.7 8.2 25.7 26.4v23.5h7.8V136h-23.5v-8.9zm-8.2-18.2c-8.8 0-16.7 1.4-16.7 9.6 0 5.8 4 8.3 9.3 8.3 10.3 0 16-7.5 15.6-18h-8.2zm39 15.6h8.2V86.9h-8.2v-12h24.3v12h.3c3.6-8 9.7-13.8 18.6-13.8 2.5 0 5 .4 7.5.7v14.5c-2.5-.7-5.3-.7-7.8-.7-11.5 0-16.8 8.7-17.5 19.2v17.8H843v12h-36v-12h.3zm114-1.6h8.6v11.8h-24v-10h-.3c-5.4 8.5-10.7 11.8-21.5 11.8-17.5 0-26-15-26-31.1 0-22.2 11.4-33 27.1-33a20 20 0 0 1 19 10.8h.3V60.1h-8.2V48.3h25.7V123h-.7zm-16.3-19.6c0-10.2-4.2-19.3-14.8-19.3-11 0-14.2 9.9-14.2 20 0 13.5 5.3 20 12.7 20 12.8.4 16.3-7.6 16.3-20.7zM124 51.5c-1.9-8.2-8-14.3-16.3-17.6 0 0-4.3-1.8-6.8-2.5a184.7 184.7 0 0 0-32-4.3c-.8 0-.4-.7 0-1 .6-1.2 1.7-2.2 2.4-3.3 1.8-2.2 3-5 3.6-7.6.8-3.2 1.1-6.4.8-9.7 0-1-.4-2.1-.8-3.5 0-.4-.3-1.5-1-1.8-.4-.4-1.5 0-1.8 0a35.7 35.7 0 0 0-18.7 15c-1.5 2.6-2.2 5-2.6 7.6v2.1c0 .4 0 1.1-.4 1.5-.3.7-1 .7-1.8.7a135.7 135.7 0 0 0-28.5 5.4 44 44 0 0 0-6 2.5h-.4l-2.5 1.4h-.4c-.7.8-1.8 1.1-2.5 1.8-.7.4-1 1.1-1.5 1.5l-.7.7-.7.7c-1 1-1.8 2.5-2.5 4 0 0 0 .3-.4.3l-.7 1.8c0 .4-.4.7-.4 1 0 .4 0 .4-.3.8-.4.7-.4 1.4-.7 2.2C0 53 0 54.8 0 56.5v2.9c0 .4 0 .7.4 1.1.7 4.7 2.5 7.9 2.5 7.9 1.8 3.6 4.3 8.3 8 12.2 0 0 .6.7.6 1.8 0 2.9.7 9 3.6 16.5A88.7 88.7 0 0 0 44 140s4.3 3.6 6 5.4c2.6 2.1 7 5 7 5 1.7 1 2.4 1.4 5 1.4 2.8 0 5-1.4 6.8-2.8 2.5-1.8 13-10.5 13-10.5 10.8-9.7 28.4-28.3 30.2-56.4 0-1 .8-1.7.8-1.7a47 47 0 0 0 7.9-12.3c.7.8 5-8.2 3.2-16.5M59.4 22a8 8 0 0 1 1.1-4 30 30 0 0 1 5.7-8.3c.7-.7 1.5-1.5 2.6-2.2.3-.4 1-.7 1.5-.4.7.4-.8 4.4-1.2 4.8a33.8 33.8 0 0 1-4.4 8c-.8 1-2 2.1-3 2.8-.4.4-1.2 1.1-2 .7-.3.4-.3-1-.3-1.4m49.4 40.5c-.3.3-.7 1.4-1 1.8 0 0-7.2 10.8-6.1 17 .7 4 2.8 9.7-2.6 22.7-3.2 7.3-6.8 15.6-18.2 29 0 0-4 4-5.7 5.4 0 0-9.7 8-13 8-2.8 0-5.3-1.9-7.1-3.7l-5.4-5.8c-17.2-22-17.9-39.7-14.6-52.4 1-4 3.9-7.2 6.8-9.4a38.4 38.4 0 0 1 16-5.8c3.3-.3 5-.3 8.3-.3h7.5c1.5 0 2.9 0 4.3.3 2.2 0 4 .4 6.1.8 1 .3 2.5.7 3.6.7.7 0 2.1 0 2.1-1.1V69c-.3-1.1-2.1-3-9.3-4.7a21 21 0 0 0-5-.7c-1 0-2.1-.4-3.2-.4H63c-12.2 0-23 1.4-23 1.4s-19.3 3-19.3-11.5c0-14.1 17.6-17.4 29-18.8h.7c.8 0 1.1 0 1.8-.4h1.1c.7 0 1.8 0 2.5-.3 1.8 0 4-.4 6.1-.4h1c4.4 0 9 .4 13.3.7 3.3.4 6.5 1.1 9.7 1.8 15.4 4 29.7 10.9 23 26.8"/></svg>